#!OML:ASF H:\Terrain\Patient Classification 1\Walking\steve\steve.ASF
:FULLY-SPECIFIED
:DEGREES
211
root 8.98358 15.1095 2.78633 7.82945 6.31121 5.07904
lowerback 0.413506 -1.9412 -3.47391
upperback -2.14435 -2.6252 1.24854
thorax -2.22226 -1.23417 3.28773
lowerneck -10.6218 -0.804858 -1.08439
upperneck 13.9714 -0.862583 -0.301297
head 5.98213 -0.498832 0.0118164
rclavicle -3.04141e-014 1.43125e-014
rhumerus -64.116 -11.1068 -65.8089
rradius 25.2227
rwrist 11.5676
rhand -14.191 -34.1008
rfingers 7.12502
rthumb 11.9449 -63.74
lclavicle -3.04141e-014 1.43125e-014
lhumerus -4.35972 -20.6299 83.7762
lradius 53.5808
lwrist 14.0778
lhand -21.7022 -21.2257
lfingers 7.12502
lthumb 4.69628 8.70225
rfemur -53.704 -0.853232 16.1637
rtibia 40.4697
rfoot -7.19802 -1.02225
rtoes 3.76274
lfemur 29.0995 -5.37971 -28.3614
ltibia -9.54166e-014
lfoot -10.8751 -3.04704
ltoes -21.2353
212
root 8.98717 15.0679 2.99023 7.81606 6.12019 5.21993
lowerback 0.998059 -1.98621 -3.34025
upperback -2.25417 -2.69967 1.39822
thorax -2.65741 -1.26127 3.39574
lowerneck -10.6192 -0.731766 -0.938692
upperneck 13.5289 -0.721077 -0.754772
head 5.83956 -0.455472 -0.142469
rclavicle 1.54058e-015 2.38542e-015
rhumerus -63.9151 -11.219 -64.9821
rradius 24.5697
rwrist 13.0225
rhand -14.6988 -33.375
rfingers 7.12502
rthumb 11.4552 -63.0421
lclavicle 1.54058e-015 2.38542e-015
lhumerus -5.49984 -19.6472 84.3746
lradius 53.9124
lwrist 13.5262
lhand -21.5928 -21.0364
lfingers 7.12502
lthumb 4.80198 8.88916
rfemur -54.3555 -1.11778 16.282
rtibia 42.8281
rfoot -6.87162 -0.156956
rtoes 2.69437
lfemur 29.8535 -5.21937 -28.4796
ltibia 6.36111e-014
lfoot -9.59197 -3.23686
ltoes -19.5146
213
root 8.98808 15.0363 3.18709 7.93021 5.8259 5.37017
lowerback 1.34277 -1.96955 -3.23105
upperback -2.23012 -2.68151 1.53682
thorax -2.82658 -1.24962 3.49105
lowerneck -10.8762 -0.73875 -1.10267
upperneck 13.0302 -0.684628 -0.879674
head 5.72708 -0.453248 -0.151665
rclavicle 9.24349e-015 -2.38542e-015
rhumerus -63.3863 -11.1556 -64.57
rradius 24.3099
rwrist 13.3241
rhand -14.7072 -33.2173
rfingers 7.12502
rthumb 11.4471 -62.8848
lclavicle 9.24349e-015 -2.38542e-015
lhumerus -6.84543 -17.6276 85.3587
lradius 54.4298
lwrist 12.0447
lhand -21.7302 -20.9522
lfingers 7.12502
lthumb 4.66931 8.97634
rfemur -55.1262 -1.24879 16.3976
rtibia 45.1003
rfoot -6.71694 0.378326
rtoes -0.0789809
lfemur 30.389 -4.98662 -28.5848
ltibia -1.27222e-014
lfoot -8.09474 -3.14888
ltoes -19.985
214
root 8.98483 15.0199 3.37888 8.21266 5.38663 5.2771
lowerback 1.52176 -1.90767 -2.89628
upperback -2.24246 -2.58961 1.69809
thorax -2.95448 -1.20641 3.4747
lowerneck -11.053 -0.688546 -1.11416
upperneck 12.4616 -0.588006 -1.08333
head 5.57821 -0.418684 -0.205086
rclavicle 2.0276e-014 4.77083e-015
rhumerus -62.7763 -11.0475 -64.3125
rradius 24.0289
rwrist 13.7643
rhand -14.6579 -32.9564
rfingers 7.12502
rthumb 11.4947 -62.6213
lclavicle 2.0276e-014 4.77083e-015
lhumerus -7.56278 -18.3358 85.274
lradius 54.5249
lwrist 13.0266
lhand -23.1109 -20.8099
lfingers 7.12502
lthumb 3.336 9.14374
rfemur -55.9691 -1.01866 16.6393
rtibia 47.1176
rfoot -6.67904 0.569797
rtoes -0.799859
lfemur 30.6192 -4.63157 -28.3829
ltibia 5.725e-014
lfoot -6.38679 -3.03492
ltoes -20.7526
